<svg width="19" height="16" viewBox="0 0 19 16" fill="none" xmlns="http://www.w3.org/2000/svg">
<path fill-rule="evenodd" clip-rule="evenodd" d="M7.28141 15.7953C9.91825 15.7953 12.1757 14.3298 13.1077 12.2523C13.1191 12.227 9.36601 13.2276 9.48569 12.8739C9.53912 12.7159 11.8398 11.8755 13.5159 10.8952C14.4793 10.3317 14.9229 9.13899 14.9229 9.13899C14.9229 9.13899 13.2999 9.92702 12.4794 10.1269C10.8259 10.5298 9.37037 10.4864 9.37037 10.4445C9.37037 10.3537 11.7872 9.89447 15.1463 7.84748C16.7264 6.88465 17.1555 5.22618 17.1555 5.22618C17.1555 5.22618 15.4184 6.26091 14.3683 6.60252C11.8779 7.41263 9.60536 7.65676 9.60536 7.54714C9.60536 7.31244 11.6053 6.76248 13.7257 5.73504C14.8282 5.20083 15.783 4.50291 16.8895 3.72676C18.7 2.45687 18.9986 0.19519 18.9986 0.19519C18.9986 0.19519 17.2129 1.34692 16.3415 1.7294C12.7457 3.30763 9.57069 4.13549 7.28141 4.31472C3.82568 4.58528 0.998535 6.99642 0.998535 10.1269C0.998535 13.2575 3.81147 15.7953 7.28141 15.7953Z" fill="white"/>
</svg>
