<svg width="18" height="18" viewBox="0 0 18 18" fill="none" xmlns="http://www.w3.org/2000/svg">
<path d="M7.125 8.24951C8.5725 8.24951 9.75 9.42701 9.75 10.8745C9.75 12.322 8.5725 13.4995 7.125 13.4995C5.6775 13.4995 4.5 12.322 4.5 10.8745C4.5 9.42701 5.6775 8.24951 7.125 8.24951ZM7.125 6.74951C4.845 6.74951 3 8.59451 3 10.8745C3 13.1545 4.845 14.9995 7.125 14.9995C9.405 14.9995 11.25 13.1545 11.25 10.8745C11.25 10.0045 10.98 9.20201 10.5225 8.53451L13.5 5.56451V7.49951H15V2.99951L10.5 2.99951V4.49951L12.435 4.49951L9.4575 7.47701C8.7975 7.01951 7.995 6.74951 7.125 6.74951Z" fill="black" fill-opacity="0.7"/>
</svg>
